<?xml version="1.0" encoding="UTF-8" standalone="no"?>
<!DOCTYPE svg PUBLIC "-//W3C//DTD SVG 1.1//EN" "http://www.w3.org/Graphics/SVG/1.1/DTD/svg11.dtd">
<svg width="100%" height="100%" viewBox="0 0 2907 879" version="1.1" xmlns="http://www.w3.org/2000/svg" xmlns:xlink="http://www.w3.org/1999/xlink" xml:space="preserve" xmlns:serif="http://www.serif.com/" style="fill-rule:evenodd;clip-rule:evenodd;stroke-linejoin:round;stroke-miterlimit:2;">
    <g transform="matrix(2.77782,4.81123,4.81123,-2.77782,143.042,327.909)">
        <path d="M12.493,-7.214C40.132,-7.212 66.136,-1.965 88.977,7.212C66.135,16.389 40.134,21.638 12.493,21.638C-15.144,21.638 -41.148,16.391 -63.989,7.214C-41.148,-1.965 -15.147,-7.214 12.493,-7.214" style="fill:rgb(245,130,31);fill-rule:nonzero;"/>
    </g>
    <g transform="matrix(-2.88234,4.74935,4.74935,2.88234,687.402,326.244)">
        <path d="M12.337,-21.912C39.976,-21.911 65.98,-16.661 88.818,-7.48C65.977,1.696 39.974,6.942 12.337,6.94C-15.305,6.937 -41.306,1.688 -64.148,-7.488C-41.307,-16.666 -15.303,-21.913 12.337,-21.912" style="fill:rgb(245,130,31);fill-rule:nonzero;"/>
    </g>
    <g transform="matrix(5.22043,-1.90035,-1.90035,-5.22043,469.201,793.828)">
        <path d="M-4.935,-0.87C22.705,-0.872 48.707,4.375 71.55,13.554C48.709,22.73 22.705,27.98 -4.935,27.981C-32.572,27.982 -58.577,22.736 -81.417,13.56C-58.575,4.381 -32.574,-0.868 -4.935,-0.87" style="fill:rgb(245,130,31);fill-rule:nonzero;"/>
    </g>
    <g transform="matrix(5.55556,0,0,5.55556,2472.53,213.481)">
        <path d="M0,-19.088C-2.638,-21.726 -5.819,-23.044 -9.544,-23.044C-13.269,-23.044 -16.45,-21.726 -19.087,-19.088C-21.725,-16.45 -23.044,-13.269 -23.044,-9.544C-23.044,-5.819 -21.725,-2.638 -19.087,-0.001C-16.45,2.637 -13.269,3.956 -9.544,3.956C-5.819,3.956 -2.638,2.637 0,-0.001C2.637,-2.638 3.956,-5.819 3.956,-9.544C3.956,-13.269 2.637,-16.45 0,-19.088M-2.107,-2.061C-4.162,0.025 -6.641,1.068 -9.544,1.068C-12.447,1.068 -14.926,0.025 -16.98,-2.061C-19.035,-4.147 -20.063,-6.641 -20.063,-9.544C-20.063,-12.447 -19.035,-14.942 -16.98,-17.028C-14.926,-19.114 -12.447,-20.157 -9.544,-20.157C-6.641,-20.157 -4.162,-19.114 -2.107,-17.028C-0.052,-14.942 0.975,-12.447 0.975,-9.544C0.975,-6.641 -0.052,-4.147 -2.107,-2.061M-7.031,-8.936C-6.147,-9.289 -5.429,-9.784 -4.877,-10.418C-4.326,-11.053 -4.05,-11.859 -4.05,-12.837C-4.05,-13.566 -4.193,-14.174 -4.479,-14.663C-4.766,-15.152 -5.215,-15.569 -5.829,-15.912C-6.391,-16.214 -6.958,-16.401 -7.53,-16.474C-8.103,-16.546 -8.862,-16.583 -9.809,-16.583L-14.912,-16.583L-14.912,-3.146L-11.604,-3.146L-11.604,-8.077L-10.263,-8.077L-6.191,-3.146L-1.959,-3.146L-7.031,-8.936ZM-7.905,-11.646C-8.02,-11.387 -8.196,-11.17 -8.436,-10.994C-8.675,-10.807 -8.992,-10.675 -9.388,-10.597C-9.783,-10.52 -10.256,-10.481 -10.808,-10.481L-11.604,-10.481L-11.604,-14.258L-10.558,-14.258C-10.132,-14.258 -9.749,-14.239 -9.411,-14.203C-9.073,-14.167 -8.774,-14.076 -8.514,-13.931C-8.233,-13.786 -8.032,-13.597 -7.913,-13.364C-7.793,-13.131 -7.733,-12.874 -7.733,-12.595C-7.733,-12.221 -7.791,-11.905 -7.905,-11.646" style="fill-rule:nonzero;"/>
    </g>
    <g transform="matrix(5.55556,0,0,5.55556,1011.99,381.467)">
        <text x="0px" y="0px" style="font-family:'Verdana-Bold', 'Verdana', sans-serif;font-weight:700;font-size:73.686px;">BCMS</text>
    </g>
    <g transform="matrix(5.55556,0,0,5.55556,1032.05,790.834)">
        <text x="0px" y="0px" style="font-family:'Verdana-Bold', 'Verdana', sans-serif;font-weight:700;font-size:73.686px;">VENTUR</text>
    </g>
</svg>
